<svg t="1626851582747" class="icon" viewBox="0 0 1024 1024" version="1.1" xmlns="http://www.w3.org/2000/svg" p-id="2954" width="200" height="200"><path d="M627.080125 743.758585l-6.39334 6.39334-39.425599 122.539022c-7.458897 21.311134 4.262227 33.032258 25.573361 26.638918l114.014569-38.360042 11.721123-13.852237c0-1.065557 1.065557-3.19667 2.131114-4.262227 6.39334-5.327784 7.458897-10.655567 5.327783-15.983351l-94.834547-88.441207c-7.458897-3.19667-12.786681-1.065557-18.114464 5.327784zM175.284079 1024h-52.212279c-28.770031 0-52.212279-23.442248-52.212279-53.277836V53.277836c0-28.770031 23.442248-53.277836 52.212279-53.277836h51.146722V1024z m72.457856 0V1.065557h653.186265c28.770031 0 52.212279 23.442248 52.212279 53.277835l-1.065557 318.601457-147.046826 167.292404-114.014568 129.997919c-3.19667 7.458897-2.131113 14.917794 4.262226 20.245577 1.065557 1.065557 1.065557 1.065557 1.065557 2.131114l79.916754 73.523413c10.655567 5.327784 20.245578 5.327784 27.704474-1.065557 1.065557-1.065557 1.065557-1.065557 2.131113-1.065557L904.12487 651.055151l45.818939-52.212279L948.878252 970.722164c0 28.770031-23.442248 53.277836-52.212279 53.277836H243.479709h4.262226z" p-id="2955"></path></svg>