<?xml version="1.0" standalone="no"?><!DOCTYPE svg PUBLIC "-//W3C//DTD SVG 1.1//EN" "http://www.w3.org/Graphics/SVG/1.1/DTD/svg11.dtd"><svg t="1625819198797" class="icon" viewBox="0 0 1024 1024" version="1.1" xmlns="http://www.w3.org/2000/svg" p-id="16334" xmlns:xlink="http://www.w3.org/1999/xlink" width="200" height="200"><defs><style type="text/css"></style></defs><path d="M764.98 523.315a137.933 137.933 0 0 0 137.983-137.83A137.933 137.933 0 1 0 764.98 523.469z m-401.153-22.067a195.533 195.533 0 0 0 195.584-195.482A195.533 195.533 0 1 0 363.827 501.35z m623.463 145.46c-24.935-39.476-60.672-84.993-108.8-82.33-35.84 1.996-39.373 28.57-161.997 29.542 46.08 59.238 67.584 143.36 63.795 193.74a110.9 110.9 0 0 1-16.794 55.911 480.358 480.358 0 0 0 142.746-19.507c69.478-20.838 99.482-39.782 107.52-61.03s-1.536-76.954-26.47-116.327zM537.6 545.433c-62.208 0-66.97 45.312-173.722 45.312-104.243 0-112.076-45.312-173.721-45.312-57.907 0-98.048 33.484-121.447 63.488C33.587 653.978 3.174 728.525 7.834 781.158c3.788 42.855 25.036 132.66 356.044 132.66 340.839 0 351.744-95.59 354.663-134.554 3.533-48.282-20.07-133.12-69.94-182.938-34.201-34.508-69.068-50.892-111.001-50.892z" p-id="16335"></path></svg>