<svg t="1625717162540" class="icon" viewBox="0 0 1025 1024" version="1.1" xmlns="http://www.w3.org/2000/svg" p-id="2399" width="200" height="200"><path d="M867.267 561.792c-81.216-66.496-162.048-133.376-243.072-200.128-37.248-30.656-74.496-61.312-111.808-92.096-3.264 2.368-6.016 4.288-8.64 6.4-116.544 96.128-233.216 192.192-349.504 288.64-4.288 3.584-7.296 11.328-7.36 17.152-0.448 97.344-0.384 194.752-0.256 292.096 0 30.208 15.936 45.824 46.464 45.824 74.944 0.064 149.824 0 224.768 0 4.032 0 8.064-0.448 13.184-0.768V676.48H592.9v243.264h236.672c32.768 0 47.936-15.232 47.936-48.32 0.064-95.68-0.128-191.36 0.192-286.976 0.064-9.856-2.816-16.32-10.432-22.656z" p-id="2400"></path><path d="M1009.731 495.808c-38.08-31.68-75.776-63.808-114.56-94.592-13.184-10.432-18.24-21.12-18.048-38.208 1.024-76.608 0.512-153.28 0.448-229.888 0-18.624-5.888-26.176-21.504-26.304-39.808-0.32-79.616-0.32-119.424 0-14.016 0.128-20.8 7.04-21.312 21.312-0.512 12.672-0.192 25.408-0.192 38.08v84.032c-6.4-5.12-9.984-7.936-13.504-10.88-44.16-36.928-88.32-73.856-132.544-110.784-38.848-32.32-75.136-32.384-114.048 0-81.024 67.392-161.984 134.912-243.008 202.368-65.664 54.72-131.328 109.504-197.056 164.224-19.008 15.872-19.648 23.872-3.456 43.072 9.28 11.008 18.432 22.08 27.712 33.088 13.888 16.448 23.04 17.28 39.552 3.456 108.864-90.816 217.728-181.76 326.656-272.576 35.328-29.504 70.784-59.008 106.56-88.832 35.712 29.76 70.848 59.008 105.92 88.256C727.107 392.768 836.355 483.904 945.54 575.04c16.32 13.632 25.408 12.672 39.424-3.968 9.536-11.328 19.008-22.72 28.544-34.048 14.912-17.728 14.144-26.304-3.776-41.216z" p-id="2401"></path></svg>