<svg t="1625799862742" class="icon" viewBox="0 0 1024 1024" version="1.1" xmlns="http://www.w3.org/2000/svg" p-id="13784" width="200" height="200"><path d="M512 0C438.857143 0 373.028571 14.628571 314.514286 36.571429 248.685714 65.828571 197.485714 102.4 146.285714 146.285714 102.4 197.485714 65.828571 248.685714 36.571429 314.514286 14.628571 373.028571 0 438.857143 0 512c0 73.142857 14.628571 138.971429 36.571429 197.485714 29.257143 65.828571 65.828571 117.028571 109.714285 168.228572 43.885714 43.885714 102.4 80.457143 160.914286 109.714285 65.828571 21.942857 131.657143 36.571429 204.8 36.571429 73.142857 0 138.971429-14.628571 197.485714-36.571429 65.828571-29.257143 117.028571-65.828571 160.914286-109.714285 43.885714-43.885714 80.457143-102.4 109.714286-160.914286 29.257143-65.828571 43.885714-131.657143 43.885714-204.8 0-73.142857-14.628571-138.971429-36.571429-197.485714-29.257143-65.828571-65.828571-117.028571-109.714285-168.228572-43.885714-43.885714-102.4-80.457143-160.914286-109.714285C650.971429 14.628571 585.142857 0 512 0z m0 804.571429c-14.628571 0-29.257143-7.314286-43.885714-14.628572-14.628571-14.628571-14.628571-29.257143-14.628572-43.885714 0-14.628571 7.314286-29.257143 14.628572-43.885714 14.628571-14.628571 29.257143-14.628571 43.885714-14.628572 14.628571 0 29.257143 7.314286 43.885714 14.628572 14.628571 14.628571 14.628571 21.942857 14.628572 43.885714s-7.314286 29.257143-14.628572 43.885714c-14.628571 7.314286-29.257143 14.628571-43.885714 14.628572z m58.514286-256c0 14.628571-7.314286 29.257143-14.628572 43.885714-14.628571 7.314286-29.257143 14.628571-43.885714 14.628571-14.628571 0-29.257143-7.314286-43.885714-21.942857-7.314286-7.314286-14.628571-21.942857-14.628572-36.571428V270.628571c0-14.628571 7.314286-29.257143 14.628572-43.885714 14.628571-7.314286 29.257143-14.628571 43.885714-14.628571 14.628571 0 29.257143 7.314286 43.885714 14.628571 14.628571 14.628571 14.628571 21.942857 14.628572 43.885714v277.942858z" fill="#FFB400" p-id="13785"></path></svg>