<?xml version="1.0" standalone="no"?><!DOCTYPE svg PUBLIC "-//W3C//DTD SVG 1.1//EN" "http://www.w3.org/Graphics/SVG/1.1/DTD/svg11.dtd"><svg t="1626331430217" class="icon" viewBox="0 0 1024 1024" version="1.1" xmlns="http://www.w3.org/2000/svg" p-id="16003" xmlns:xlink="http://www.w3.org/1999/xlink" width="200" height="200"><defs><style type="text/css"></style></defs><path d="M207.9 660.3c-16.4 0-29.7 13.3-29.7 29.7s13.3 29.7 29.7 29.7h200.2c16.4 0 29.7-13.3 29.7-29.7s-13.3-29.7-29.7-29.7H207.9z m0-185.4c-16.4 0-29.7 13.3-29.7 29.7s13.3 29.7 29.7 29.7h311.5c16.4 0 29.7-13.3 29.7-29.7s-13.3-29.7-29.7-29.7H207.9z m0-185.4c-16.4 0-29.7 13.3-29.7 29.7s13.3 29.7 29.7 29.7h534c16.4 0 29.7-13.3 29.7-29.7s-13.3-29.7-29.7-29.7h-534z m513.6 314.3l-13.1-13.1c-36.2-36.2-94.9-36.2-131.1 0-36.2 36.2-36.2 94.9 0 131.1L700.5 845c11.6 11.6 30.4 11.6 42 0l110.1-110.1 13.1-13.1c36.2-36.2 36.2-94.9 0-131.1-36.2-36.2-94.9-36.2-131.1 0l-13.1 13.1zM178.2 141.2h667.5c61.4 0 111.2 49.8 111.2 111.2v519.2c0 61.4-49.8 111.2-111.2 111.2H178.2C116.8 882.8 67 833 67 771.6V252.4c0-61.4 49.8-111.2 111.2-111.2z" p-id="16004"></path></svg>