<svg t="1625820245523" class="icon" viewBox="0 0 1024 1024" version="1.1" xmlns="http://www.w3.org/2000/svg" p-id="22015" width="200" height="200"><path d="M153.6 307.2h716.8a51.2 51.2 0 0 1 51.2 51.2v512a51.2 51.2 0 0 1-51.2 51.2H153.6a51.2 51.2 0 0 1-51.2-51.2V358.4a51.2 51.2 0 0 1 51.2-51.2z m153.6 256v153.6h51.2v-153.6h307.2v153.6h51.2v-153.6H307.2zM153.6 460.8v51.2h716.8V460.8H153.6z m153.6-307.2h409.6a51.2 51.2 0 0 1 51.2 51.2v102.4H256V204.8a51.2 51.2 0 0 1 51.2-51.2z m0 51.2v102.4h409.6V204.8H307.2z" p-id="22016"></path></svg>