<svg t="1625819330038" class="icon" viewBox="0 0 1024 1024" version="1.1" xmlns="http://www.w3.org/2000/svg" p-id="17302" width="200" height="200"><path d="M832 640a189.952 189.952 0 0 0-98.176 27.456L576 544.704v-172c74.464-26.4 128-97.312 128-180.704 0-105.888-86.112-192-192-192s-192 86.112-192 192c0 83.424 53.536 154.304 128 180.704v171.968l-157.824 122.752A190.24 190.24 0 0 0 192 640c-105.888 0-192 86.112-192 192s86.112 192 192 192 192-86.112 192-192a189.76 189.76 0 0 0-12.064-65.984L512 657.088l140.064 108.928A189.76 189.76 0 0 0 640 832c0 105.888 86.112 192 192 192s192-86.112 192-192-86.112-192-192-192z" fill="" p-id="17303"></path></svg>