<?xml version="1.0" standalone="no"?><!DOCTYPE svg PUBLIC "-//W3C//DTD SVG 1.1//EN" "http://www.w3.org/Graphics/SVG/1.1/DTD/svg11.dtd"><svg t="1625819772094" class="icon" viewBox="0 0 1024 1024" version="1.1" xmlns="http://www.w3.org/2000/svg" p-id="19322" xmlns:xlink="http://www.w3.org/1999/xlink" width="200" height="200"><defs><style type="text/css"></style></defs><path d="M512.922 503.721c-5.029 0-10.058-1.156-14.676-3.327L47.08 284.049c-11.824-5.64-19.3-17.594-19.3-30.642 0-13.048 7.476-25.007 19.3-30.641L498.246 6.42c9.373-4.416 20.248-4.484 29.554 0.068l445.254 216.345c11.685 5.64 19.093 17.527 19.093 30.574a33.974 33.974 0 0 1-19.093 30.575l-445.322 216.27c-4.619 2.314-9.715 3.47-14.81 3.47zM512.922 1018.004c-5.096 0-10.125-1.156-14.815-3.396l-445.25-216.34c-16.92-8.22-23.919-28.537-15.697-45.456 8.222-16.853 28.47-23.918 45.39-15.697l430.372 209.14 430.37-209.14c16.921-8.087 37.237-1.088 45.458 15.697 8.15 16.92 1.15 37.236-15.696 45.457L527.8 1014.609c-4.687 2.312-9.783 3.395-14.878 3.395z m0 0" p-id="19323"></path><path d="M957.97 791.743c-18.756 0-33.977-15.22-33.977-33.97V259.316c0-18.75 15.221-33.97 33.976-33.97s33.976 15.22 33.976 33.97v498.457c0 18.817-15.22 33.97-33.976 33.97z m0 0M512.933 976.467c-18.755 0-33.976-15.22-33.976-33.97V444.04c0-18.75 15.221-33.97 33.976-33.97s33.976 15.22 33.976 33.97v498.457c0 18.818-15.22 33.97-33.976 33.97z m0 0M57.683 795.683c-18.755 0-33.976-15.22-33.976-33.97V259.315c0-18.75 15.22-33.97 33.976-33.97 18.749 0 33.968 15.22 33.968 33.97v502.396c0.001 18.75-15.22 33.971-33.968 33.971z m0 0" p-id="19324"></path></svg>